<?xml version="1.0" encoding="utf-8"?>
<!--
  Gemeente Tilburg crest + wordmark — white text for dark backgrounds.
  Generated by generate-logo-paths.mjs. Re-run after font/text/color changes.
  Wordmark "GEMEENTE TILBURG" converted from Trade Gothic Bold Condensed 20 (LT Pro)
  to vector paths so the rendering is independent of font loading.
-->
<svg xmlns="http://www.w3.org/2000/svg" viewBox="0 0 662 107" role="img" aria-label="GEMEENTE TILBURG" preserveAspectRatio="xMinYMid meet">
  <rect fill="#0E3E63" width="91" height="107"/>
  <path fill="#FFFFFF" d="M78.9,71.4c0,4.5-1.9,8.199-5.7,11L62.7,90.3H51v-13c0-1.5-0.6-2.8-1.7-3.8c-1.1-1.1-2.5-1.6-4-1.6 s-2.9,0.5-4.1,1.6c-1.1,1.1-1.7,2.3-1.7,3.8v13H27.8L17.3,82.4c-3.8-2.9-5.7-6.601-5.7-11V31.9l10.2-14.8l10.3,14.8v27.5H35V31.9 l10.3-14.8l10.2,14.8v27.5h2.9V31.9l10.3-14.8l10.2,14.8V71.4z M27.9,36.9H16v11.3l11.9,9.1V36.9z M27.9,85.2V62.4l-11.9-9v18 c0,3.199,1.3,5.8,4,7.899L27.9,85.2z M27.7,32.8l-5.8-8.3l-5.8,8.3H27.7z M58.4,86.3V63.5H32.2v22.8h3.1V77.4c0-2.601,1-4.9,2.9-6.7 c1.9-1.8,4.3-2.8,7.1-2.8S50.4,68.8,52.4,70.7c2,1.899,2.899,4.1,2.899,6.7V86.3H58.4z M51.3,59.4V36.9h-12v22.5H51.3z M51,32.8 l-5.8-8.3l-5.8,8.3H51z M74.6,48.2V36.9h-12v20.4L74.6,48.2z M74.6,71.4v-18L62.7,62.5v22.8l7.899-6C73.2,77.2,74.6,74.6,74.6,71.4z M74.4,32.8L68.6,24.5l-5.8,8.3H74.4z"/>
  <path fill="#FFFFFF" d="M153.50 40.04L153.50 43.56L145 43.56L145 43.28Q145 38.24 143.92 36Q142.84 33.77 139.89 33.77Q137.87 33.77 136.90 35.25Q135.93 36.72 135.93 39.24L135.93 66.39Q135.93 71.64 140.10 71.64Q142.84 71.64 143.92 69.95Q145 68.26 145 64.73L145 59.40L139.31 59.40L139.31 52.35L153.93 52.35L153.93 78.70L149.61 78.70L147.95 74.81Q145.72 77.48 143.78 78.45Q141.83 79.42 139.02 79.42Q133.41 79.42 130.20 75.75Q127 72.08 127 66.39L127 39.10Q127 33.41 130.46 29.70Q133.91 26 140.10 26Q144.28 26 147.34 27.83Q150.40 29.67 151.95 32.87Q153.50 36.08 153.50 40.04M186.90 34.49L171.93 34.49L171.93 47.88L183.45 47.88L183.45 55.66L171.93 55.66L171.93 70.92L187.91 70.92L187.91 78.70L163 78.70L163 26.72L186.90 26.72L186.90 34.49M212.54 57.10L212.68 57.10L219.02 26.72L230.75 26.72L230.75 78.70L222.98 78.70L222.98 38.09L222.83 38.09L214.77 78.70L210.45 78.70L202.38 38.09L202.24 38.09L202.24 78.70L194.46 78.70L194.46 26.72L206.20 26.72L212.54 57.10M262.86 34.49L247.89 34.49L247.89 47.88L259.41 47.88L259.41 55.66L247.89 55.66L247.89 70.92L263.87 70.92L263.87 78.70L238.96 78.70L238.96 26.72L262.86 26.72L262.86 34.49M294.83 34.49L279.86 34.49L279.86 47.88L291.38 47.88L291.38 55.66L279.86 55.66L279.86 70.92L295.84 70.92L295.84 78.70L270.93 78.70L270.93 26.72L294.83 26.72L294.83 34.49M322.05 56.45L322.19 56.45L322.19 26.72L330.26 26.72L330.26 78.70L322.48 78.70L311.10 46.23L310.96 46.23L310.96 78.70L302.90 78.70L302.90 26.72L311.18 26.72L322.05 56.45M361.65 34.49L353.01 34.49L353.01 78.70L344.08 78.70L344.08 34.49L335.44 34.49L335.44 26.72L361.65 26.72L361.65 34.49M390.81 34.49L375.83 34.49L375.83 47.88L387.35 47.88L387.35 55.66L375.83 55.66L375.83 70.92L391.82 70.92L391.82 78.70L366.90 78.70L366.90 26.72L390.81 26.72L390.81 34.49M437.61 34.49L428.97 34.49L428.97 78.70L420.04 78.70L420.04 34.49L411.40 34.49L411.40 26.72L437.61 26.72L437.61 34.49M453.02 78.70L444.09 78.70L444.09 26.72L453.02 26.72L453.02 78.70M471.38 70.92L485.42 70.92L485.42 78.70L462.45 78.70L462.45 26.72L471.38 26.72L471.38 70.92M517.96 40.47Q517.96 44.36 516.30 47.31Q514.65 50.26 511.77 51.34Q515.51 53 517.24 56.02Q518.97 59.04 518.97 63.65Q518.97 70.92 515.37 74.81Q511.77 78.70 505.29 78.70L490.89 78.70L490.89 26.72L504.50 26.72Q511.19 26.72 514.58 30.21Q517.96 33.70 517.96 40.47M509.03 41.33Q509.03 37.88 507.66 35.97Q506.30 34.06 502.98 34.06L499.82 34.06L499.82 48.03L503.06 48.03Q505.79 48.03 507.41 46.23Q509.03 44.43 509.03 41.33M510.04 63.36Q510.04 59.33 508.35 57.35Q506.66 55.37 502.70 55.37L499.82 55.37L499.82 71.36L503.85 71.36Q507.23 71.36 508.64 69.27Q510.04 67.18 510.04 63.36M540.57 71.64Q545.32 71.64 545.32 66.17L545.32 26.72L554.25 26.72L554.25 65.88Q554.25 72 550.68 75.71Q547.12 79.42 540.57 79.42Q534.09 79.42 530.49 75.78Q526.89 72.15 526.89 65.88L526.89 26.72L535.82 26.72L535.82 66.17Q535.82 71.64 540.57 71.64M590.54 42.05Q590.54 52.20 584.27 55.16L591.83 78.70L582.76 78.70L576.42 57.17Q574.70 57.39 571.82 57.39L571.82 78.70L562.89 78.70L562.89 26.72L575.78 26.72Q583.19 26.72 586.86 30.35Q590.54 33.99 590.54 42.05M581.61 42.05Q581.61 37.52 580.17 35.79Q578.73 34.06 574.84 34.06L571.82 34.06L571.82 50.04L575.20 50.04Q578.80 50.04 580.20 48.32Q581.61 46.59 581.61 42.05M625.38 40.04L625.38 43.56L616.89 43.56L616.89 43.28Q616.89 38.24 615.81 36Q614.73 33.77 611.78 33.77Q609.76 33.77 608.79 35.25Q607.82 36.72 607.82 39.24L607.82 66.39Q607.82 71.64 611.99 71.64Q614.73 71.64 615.81 69.95Q616.89 68.26 616.89 64.73L616.89 59.40L611.20 59.40L611.20 52.35L625.82 52.35L625.82 78.70L621.50 78.70L619.84 74.81Q617.61 77.48 615.66 78.45Q613.72 79.42 610.91 79.42Q605.30 79.42 602.09 75.75Q598.89 72.08 598.89 66.39L598.89 39.10Q598.89 33.41 602.34 29.70Q605.80 26 611.99 26Q616.17 26 619.23 27.83Q622.29 29.67 623.84 32.87Q625.38 36.08 625.38 40.04"/>
</svg>
